<svg width="900" height="160" viewBox="0 0 900 160" fill="none" xmlns="http://www.w3.org/2000/svg">
<g clip-path="url(#clip0)">
<rect width="900" height="160" rx="4" fill="white"/>
<rect width="900" height="160" rx="4" fill="#F3A42D"/>
<path d="M624 21.2309L633.3 30.5834" stroke="#BE7C19" stroke-width="2" stroke-miterlimit="10" stroke-linecap="round" stroke-linejoin="round"/>
<path d="M633.3 21.2309L624 30.5834" stroke="#BE7C19" stroke-width="2" stroke-miterlimit="10" stroke-linecap="round" stroke-linejoin="round"/>
<path d="M81.5749 132.445V145.671" stroke="#BE7C19" stroke-width="2" stroke-miterlimit="10" stroke-linecap="round" stroke-linejoin="round"/>
<path d="M88.1675 139.056H75" stroke="#BE7C19" stroke-width="2" stroke-miterlimit="10" stroke-linecap="round" stroke-linejoin="round"/>
<path d="M510.986 128.443C510.986 132.872 507.413 136.481 502.993 136.481C498.588 136.481 495 132.888 495 128.443C495 124.014 498.573 120.405 502.993 120.405C507.413 120.421 510.986 124.014 510.986 128.443Z" stroke="#BE7C19" stroke-width="2" stroke-miterlimit="10" stroke-linecap="round" stroke-linejoin="round"/>
<path d="M14.5386 25.0401C16.1373 25.0401 17.4334 23.7368 17.4334 22.1291C17.4334 20.5213 16.1373 19.218 14.5386 19.218C12.9398 19.218 11.6437 20.5213 11.6437 22.1291C11.6437 23.7368 12.9398 25.0401 14.5386 25.0401Z" fill="white" fill-opacity="0.35"/>
<path d="M34.7427 25.0401C36.3415 25.0401 37.6375 23.7368 37.6375 22.1291C37.6375 20.5213 36.3415 19.218 34.7427 19.218C33.144 19.218 31.8479 20.5213 31.8479 22.1291C31.8479 23.7368 33.144 25.0401 34.7427 25.0401Z" fill="white" fill-opacity="0.35"/>
<path d="M54.9622 25.0401C56.561 25.0401 57.8571 23.7368 57.8571 22.1291C57.8571 20.5213 56.561 19.218 54.9622 19.218C53.3635 19.218 52.0674 20.5213 52.0674 22.1291C52.0674 23.7368 53.3635 25.0401 54.9622 25.0401Z" fill="white" fill-opacity="0.35"/>
<path d="M14.5389 45.3591C16.1377 45.3591 17.4338 44.0558 17.4338 42.4481C17.4338 40.8404 16.1377 39.537 14.5389 39.537C12.9402 39.537 11.6441 40.8404 11.6441 42.4481C11.6441 44.0558 12.9402 45.3591 14.5389 45.3591Z" fill="white" fill-opacity="0.35"/>
<path d="M34.743 45.3591C36.3417 45.3591 37.6378 44.0558 37.6378 42.4481C37.6378 40.8404 36.3417 39.537 34.743 39.537C33.1442 39.537 31.8481 40.8404 31.8481 42.4481C31.8481 44.0558 33.1442 45.3591 34.743 45.3591Z" fill="white" fill-opacity="0.35"/>
<path d="M54.9622 45.3591C56.561 45.3591 57.8571 44.0558 57.8571 42.4481C57.8571 40.8404 56.561 39.537 54.9622 39.537C53.3635 39.537 52.0674 40.8404 52.0674 42.4481C52.0674 44.0558 53.3635 45.3591 54.9622 45.3591Z" fill="white" fill-opacity="0.35"/>
<path d="M14.5389 65.6935C16.1377 65.6935 17.4338 64.3902 17.4338 62.7825C17.4338 61.1747 16.1377 59.8714 14.5389 59.8714C12.9402 59.8714 11.6441 61.1747 11.6441 62.7825C11.6441 64.3902 12.9402 65.6935 14.5389 65.6935Z" fill="white" fill-opacity="0.35"/>
<path d="M34.743 65.6935C36.3417 65.6935 37.6378 64.3902 37.6378 62.7825C37.6378 61.1747 36.3417 59.8714 34.743 59.8714C33.1442 59.8714 31.8481 61.1747 31.8481 62.7825C31.8481 64.3902 33.1442 65.6935 34.743 65.6935Z" fill="white" fill-opacity="0.35"/>
<path d="M54.9622 65.6935C56.561 65.6935 57.8571 64.3902 57.8571 62.7825C57.8571 61.1747 56.561 59.8714 54.9622 59.8714C53.3635 59.8714 52.0674 61.1747 52.0674 62.7825C52.0674 64.3902 53.3635 65.6935 54.9622 65.6935Z" fill="white" fill-opacity="0.35"/>
<path d="M14.5389 86.0121C16.1377 86.0121 17.4338 84.7088 17.4338 83.1011C17.4338 81.4933 16.1377 80.19 14.5389 80.19C12.9402 80.19 11.6441 81.4933 11.6441 83.1011C11.6441 84.7088 12.9402 86.0121 14.5389 86.0121Z" fill="white" fill-opacity="0.35"/>
<path d="M34.743 86.0121C36.3417 86.0121 37.6378 84.7088 37.6378 83.1011C37.6378 81.4933 36.3417 80.19 34.743 80.19C33.1442 80.19 31.8481 81.4933 31.8481 83.1011C31.8481 84.7088 33.1442 86.0121 34.743 86.0121Z" fill="white" fill-opacity="0.35"/>
<path d="M54.9622 86.0121C56.561 86.0121 57.8571 84.7088 57.8571 83.1011C57.8571 81.4933 56.561 80.19 54.9622 80.19C53.3635 80.19 52.0674 81.4933 52.0674 83.1011C52.0674 84.7088 53.3635 86.0121 54.9622 86.0121Z" fill="white" fill-opacity="0.35"/>
<path d="M897.507 25.0402C899.106 25.0402 900.402 23.7369 900.402 22.1292C900.402 20.5215 899.106 19.2181 897.507 19.2181C895.908 19.2181 894.612 20.5215 894.612 22.1292C894.612 23.7369 895.908 25.0402 897.507 25.0402Z" fill="white" fill-opacity="0.35"/>
<path d="M897.507 45.3745C899.106 45.3745 900.402 44.0712 900.402 42.4635C900.402 40.8558 899.106 39.5525 897.507 39.5525C895.908 39.5525 894.612 40.8558 894.612 42.4635C894.612 44.0712 895.908 45.3745 897.507 45.3745Z" fill="white" fill-opacity="0.35"/>
<path d="M897.507 65.6936C899.106 65.6936 900.402 64.3903 900.402 62.7826C900.402 61.1748 899.106 59.8715 897.507 59.8715C895.908 59.8715 894.612 61.1748 894.612 62.7826C894.612 64.3903 895.908 65.6936 897.507 65.6936Z" fill="white" fill-opacity="0.35"/>
<path d="M897.507 86.0279C899.106 86.0279 900.402 84.7246 900.402 83.1169C900.402 81.5092 899.106 80.2059 897.507 80.2059C895.908 80.2059 894.612 81.5092 894.612 83.1169C894.612 84.7246 895.908 86.0279 897.507 86.0279Z" fill="white" fill-opacity="0.35"/>
<path d="M897.507 106.347C899.106 106.347 900.402 105.043 900.402 103.436C900.402 101.828 899.106 100.525 897.507 100.525C895.908 100.525 894.612 101.828 894.612 103.436C894.612 105.043 895.908 106.347 897.507 106.347Z" fill="white" fill-opacity="0.35"/>
<path d="M897.507 126.681C899.106 126.681 900.402 125.378 900.402 123.77C900.402 122.162 899.106 120.859 897.507 120.859C895.908 120.859 894.612 122.162 894.612 123.77C894.612 125.378 895.908 126.681 897.507 126.681Z" fill="white" fill-opacity="0.35"/>
<path d="M897.507 147C899.106 147 900.402 145.697 900.402 144.089C900.402 142.481 899.106 141.178 897.507 141.178C895.908 141.178 894.612 142.481 894.612 144.089C894.612 145.697 895.908 147 897.507 147Z" fill="white" fill-opacity="0.35"/>
<path d="M877.302 25.0402C878.901 25.0402 880.197 23.7369 880.197 22.1292C880.197 20.5215 878.901 19.2181 877.302 19.2181C875.704 19.2181 874.408 20.5215 874.408 22.1292C874.408 23.7369 875.704 25.0402 877.302 25.0402Z" fill="white" fill-opacity="0.35"/>
<path d="M877.302 45.3745C878.901 45.3745 880.197 44.0712 880.197 42.4635C880.197 40.8558 878.901 39.5525 877.302 39.5525C875.704 39.5525 874.408 40.8558 874.408 42.4635C874.408 44.0712 875.704 45.3745 877.302 45.3745Z" fill="white" fill-opacity="0.35"/>
<path d="M877.302 65.6936C878.901 65.6936 880.197 64.3903 880.197 62.7826C880.197 61.1748 878.901 59.8715 877.302 59.8715C875.704 59.8715 874.408 61.1748 874.408 62.7826C874.408 64.3903 875.704 65.6936 877.302 65.6936Z" fill="white" fill-opacity="0.35"/>
<path d="M877.302 86.0279C878.901 86.0279 880.197 84.7246 880.197 83.1169C880.197 81.5092 878.901 80.2059 877.302 80.2059C875.704 80.2059 874.408 81.5092 874.408 83.1169C874.408 84.7246 875.704 86.0279 877.302 86.0279Z" fill="white" fill-opacity="0.35"/>
<path d="M877.302 106.347C878.901 106.347 880.197 105.043 880.197 103.436C880.197 101.828 878.901 100.525 877.302 100.525C875.704 100.525 874.408 101.828 874.408 103.436C874.408 105.043 875.704 106.347 877.302 106.347Z" fill="white" fill-opacity="0.35"/>
<path d="M877.302 126.681C878.901 126.681 880.197 125.378 880.197 123.77C880.197 122.162 878.901 120.859 877.302 120.859C875.704 120.859 874.408 122.162 874.408 123.77C874.408 125.378 875.704 126.681 877.302 126.681Z" fill="white" fill-opacity="0.35"/>
<path d="M877.302 147C878.901 147 880.197 145.697 880.197 144.089C880.197 142.481 878.901 141.178 877.302 141.178C875.704 141.178 874.408 142.481 874.408 144.089C874.408 145.697 875.704 147 877.302 147Z" fill="white" fill-opacity="0.35"/>
<path d="M857.084 25.0412C858.682 25.0412 859.978 23.7378 859.978 22.1301C859.978 20.5224 858.682 19.2191 857.084 19.2191C855.485 19.2191 854.189 20.5224 854.189 22.1301C854.189 23.7378 855.485 25.0412 857.084 25.0412Z" fill="white" fill-opacity="0.35"/>
<path d="M857.083 45.3745C858.682 45.3745 859.978 44.0712 859.978 42.4635C859.978 40.8558 858.682 39.5525 857.083 39.5525C855.484 39.5525 854.188 40.8558 854.188 42.4635C854.188 44.0712 855.484 45.3745 857.083 45.3745Z" fill="white" fill-opacity="0.35"/>
<path d="M857.083 65.6936C858.682 65.6936 859.978 64.3903 859.978 62.7826C859.978 61.1748 858.682 59.8715 857.083 59.8715C855.484 59.8715 854.188 61.1748 854.188 62.7826C854.188 64.3903 855.484 65.6936 857.083 65.6936Z" fill="white" fill-opacity="0.35"/>
<path d="M857.083 86.0279C858.682 86.0279 859.978 84.7245 859.978 83.1168C859.978 81.5091 858.682 80.2058 857.083 80.2058C855.484 80.2058 854.188 81.5091 854.188 83.1168C854.188 84.7245 855.484 86.0279 857.083 86.0279Z" fill="white" fill-opacity="0.35"/>
<path d="M857.083 106.347C858.682 106.347 859.978 105.043 859.978 103.436C859.978 101.828 858.682 100.525 857.083 100.525C855.484 100.525 854.188 101.828 854.188 103.436C854.188 105.043 855.484 106.347 857.083 106.347Z" fill="white" fill-opacity="0.35"/>
<path d="M857.083 126.681C858.682 126.681 859.978 125.378 859.978 123.77C859.978 122.162 858.682 120.859 857.083 120.859C855.484 120.859 854.188 122.162 854.188 123.77C854.188 125.378 855.484 126.681 857.083 126.681Z" fill="white" fill-opacity="0.35"/>
<path d="M857.083 147C858.682 147 859.978 145.697 859.978 144.089C859.978 142.481 858.682 141.178 857.083 141.178C855.484 141.178 854.188 142.481 854.188 144.089C854.188 145.697 855.484 147 857.083 147Z" fill="white" fill-opacity="0.35"/>
<path d="M225.802 108.21H220.33L219.322 111H217.594L222.13 98.526H224.02L228.538 111H226.81L225.802 108.21ZM225.334 106.878L223.066 100.542L220.798 106.878H225.334ZM235.321 100.956C236.521 100.956 237.493 101.322 238.237 102.054C238.981 102.774 239.353 103.818 239.353 105.186V111H237.733V105.42C237.733 104.436 237.487 103.686 236.995 103.17C236.503 102.642 235.831 102.378 234.979 102.378C234.115 102.378 233.425 102.648 232.909 103.188C232.405 103.728 232.153 104.514 232.153 105.546V111H230.515V101.136H232.153V102.54C232.477 102.036 232.915 101.646 233.467 101.37C234.031 101.094 234.649 100.956 235.321 100.956ZM246.215 106.032C246.215 105.024 246.419 104.142 246.827 103.386C247.235 102.618 247.793 102.024 248.501 101.604C249.221 101.184 250.019 100.974 250.895 100.974C251.759 100.974 252.509 101.16 253.145 101.532C253.781 101.904 254.255 102.372 254.567 102.936V101.136H256.223V111H254.567V109.164C254.243 109.74 253.757 110.22 253.109 110.604C252.473 110.976 251.729 111.162 250.877 111.162C250.001 111.162 249.209 110.946 248.501 110.514C247.793 110.082 247.235 109.476 246.827 108.696C246.419 107.916 246.215 107.028 246.215 106.032ZM254.567 106.05C254.567 105.306 254.417 104.658 254.117 104.106C253.817 103.554 253.409 103.134 252.893 102.846C252.389 102.546 251.831 102.396 251.219 102.396C250.607 102.396 250.049 102.54 249.545 102.828C249.041 103.116 248.639 103.536 248.339 104.088C248.039 104.64 247.889 105.288 247.889 106.032C247.889 106.788 248.039 107.448 248.339 108.012C248.639 108.564 249.041 108.99 249.545 109.29C250.049 109.578 250.607 109.722 251.219 109.722C251.831 109.722 252.389 109.578 252.893 109.29C253.409 108.99 253.817 108.564 254.117 108.012C254.417 107.448 254.567 106.794 254.567 106.05ZM260.629 102.954C260.953 102.39 261.433 101.922 262.069 101.55C262.717 101.166 263.467 100.974 264.319 100.974C265.195 100.974 265.987 101.184 266.695 101.604C267.415 102.024 267.979 102.618 268.387 103.386C268.795 104.142 268.999 105.024 268.999 106.032C268.999 107.028 268.795 107.916 268.387 108.696C267.979 109.476 267.415 110.082 266.695 110.514C265.987 110.946 265.195 111.162 264.319 111.162C263.479 111.162 262.735 110.976 262.087 110.604C261.451 110.22 260.965 109.746 260.629 109.182V115.68H258.991V101.136H260.629V102.954ZM267.325 106.032C267.325 105.288 267.175 104.64 266.875 104.088C266.575 103.536 266.167 103.116 265.651 102.828C265.147 102.54 264.589 102.396 263.977 102.396C263.377 102.396 262.819 102.546 262.303 102.846C261.799 103.134 261.391 103.56 261.079 104.124C260.779 104.676 260.629 105.318 260.629 106.05C260.629 106.794 260.779 107.448 261.079 108.012C261.391 108.564 261.799 108.99 262.303 109.29C262.819 109.578 263.377 109.722 263.977 109.722C264.589 109.722 265.147 109.578 265.651 109.29C266.167 108.99 266.575 108.564 266.875 108.012C267.175 107.448 267.325 106.788 267.325 106.032ZM272.794 102.954C273.118 102.39 273.598 101.922 274.234 101.55C274.882 101.166 275.632 100.974 276.484 100.974C277.36 100.974 278.152 101.184 278.86 101.604C279.58 102.024 280.144 102.618 280.552 103.386C280.96 104.142 281.164 105.024 281.164 106.032C281.164 107.028 280.96 107.916 280.552 108.696C280.144 109.476 279.58 110.082 278.86 110.514C278.152 110.946 277.36 111.162 276.484 111.162C275.644 111.162 274.9 110.976 274.252 110.604C273.616 110.22 273.13 109.746 272.794 109.182V115.68H271.156V101.136H272.794V102.954ZM279.49 106.032C279.49 105.288 279.34 104.64 279.04 104.088C278.74 103.536 278.332 103.116 277.816 102.828C277.312 102.54 276.754 102.396 276.142 102.396C275.542 102.396 274.984 102.546 274.468 102.846C273.964 103.134 273.556 103.56 273.244 104.124C272.944 104.676 272.794 105.318 272.794 106.05C272.794 106.794 272.944 107.448 273.244 108.012C273.556 108.564 273.964 108.99 274.468 109.29C274.984 109.578 275.542 109.722 276.142 109.722C276.754 109.722 277.312 109.578 277.816 109.29C278.332 108.99 278.74 108.564 279.04 108.012C279.34 107.448 279.49 106.788 279.49 106.032ZM287.506 106.032C287.506 105.024 287.71 104.142 288.118 103.386C288.526 102.618 289.084 102.024 289.792 101.604C290.512 101.184 291.31 100.974 292.186 100.974C293.05 100.974 293.8 101.16 294.436 101.532C295.072 101.904 295.546 102.372 295.858 102.936V101.136H297.514V111H295.858V109.164C295.534 109.74 295.048 110.22 294.4 110.604C293.764 110.976 293.02 111.162 292.168 111.162C291.292 111.162 290.5 110.946 289.792 110.514C289.084 110.082 288.526 109.476 288.118 108.696C287.71 107.916 287.506 107.028 287.506 106.032ZM295.858 106.05C295.858 105.306 295.708 104.658 295.408 104.106C295.108 103.554 294.7 103.134 294.184 102.846C293.68 102.546 293.122 102.396 292.51 102.396C291.898 102.396 291.34 102.54 290.836 102.828C290.332 103.116 289.93 103.536 289.63 104.088C289.33 104.64 289.18 105.288 289.18 106.032C289.18 106.788 289.33 107.448 289.63 108.012C289.93 108.564 290.332 108.99 290.836 109.29C291.34 109.578 291.898 109.722 292.51 109.722C293.122 109.722 293.68 109.578 294.184 109.29C294.7 108.99 295.108 108.564 295.408 108.012C295.708 107.448 295.858 106.794 295.858 106.05ZM301.92 102.972C302.256 102.384 302.748 101.904 303.396 101.532C304.044 101.16 304.782 100.974 305.61 100.974C306.498 100.974 307.296 101.184 308.004 101.604C308.712 102.024 309.27 102.618 309.678 103.386C310.086 104.142 310.29 105.024 310.29 106.032C310.29 107.028 310.086 107.916 309.678 108.696C309.27 109.476 308.706 110.082 307.986 110.514C307.278 110.946 306.486 111.162 305.61 111.162C304.758 111.162 304.008 110.976 303.36 110.604C302.724 110.232 302.244 109.758 301.92 109.182V111H300.282V97.68H301.92V102.972ZM308.616 106.032C308.616 105.288 308.466 104.64 308.166 104.088C307.866 103.536 307.458 103.116 306.942 102.828C306.438 102.54 305.88 102.396 305.268 102.396C304.668 102.396 304.11 102.546 303.594 102.846C303.09 103.134 302.682 103.56 302.37 104.124C302.07 104.676 301.92 105.318 301.92 106.05C301.92 106.794 302.07 107.448 302.37 108.012C302.682 108.564 303.09 108.99 303.594 109.29C304.11 109.578 304.668 109.722 305.268 109.722C305.88 109.722 306.438 109.578 306.942 109.29C307.458 108.99 307.866 108.564 308.166 108.012C308.466 107.448 308.616 106.788 308.616 106.032ZM316.749 111.162C315.825 111.162 314.985 110.952 314.229 110.532C313.485 110.112 312.897 109.518 312.465 108.75C312.045 107.97 311.835 107.07 311.835 106.05C311.835 105.042 312.051 104.154 312.483 103.386C312.927 102.606 313.527 102.012 314.283 101.604C315.039 101.184 315.885 100.974 316.821 100.974C317.757 100.974 318.603 101.184 319.359 101.604C320.115 102.012 320.709 102.6 321.141 103.368C321.585 104.136 321.807 105.03 321.807 106.05C321.807 107.07 321.579 107.97 321.123 108.75C320.679 109.518 320.073 110.112 319.305 110.532C318.537 110.952 317.685 111.162 316.749 111.162ZM316.749 109.722C317.337 109.722 317.889 109.584 318.405 109.308C318.921 109.032 319.335 108.618 319.647 108.066C319.971 107.514 320.133 106.842 320.133 106.05C320.133 105.258 319.977 104.586 319.665 104.034C319.353 103.482 318.945 103.074 318.441 102.81C317.937 102.534 317.391 102.396 316.803 102.396C316.203 102.396 315.651 102.534 315.147 102.81C314.655 103.074 314.259 103.482 313.959 104.034C313.659 104.586 313.509 105.258 313.509 106.05C313.509 106.854 313.653 107.532 313.941 108.084C314.241 108.636 314.637 109.05 315.129 109.326C315.621 109.59 316.161 109.722 316.749 109.722ZM332.708 101.136V111H331.07V109.542C330.758 110.046 330.32 110.442 329.756 110.73C329.204 111.006 328.592 111.144 327.92 111.144C327.152 111.144 326.462 110.988 325.85 110.676C325.238 110.352 324.752 109.872 324.392 109.236C324.044 108.6 323.87 107.826 323.87 106.914V101.136H325.49V106.698C325.49 107.67 325.736 108.42 326.228 108.948C326.72 109.464 327.392 109.722 328.244 109.722C329.12 109.722 329.81 109.452 330.314 108.912C330.818 108.372 331.07 107.586 331.07 106.554V101.136H332.708ZM337.472 102.486V108.3C337.472 108.78 337.574 109.122 337.778 109.326C337.982 109.518 338.336 109.614 338.84 109.614H340.046V111H338.57C337.658 111 336.974 110.79 336.518 110.37C336.062 109.95 335.834 109.26 335.834 108.3V102.486H334.556V101.136H335.834V98.652H337.472V101.136H340.046V102.486H337.472ZM348.827 102.486V108.3C348.827 108.78 348.929 109.122 349.133 109.326C349.337 109.518 349.691 109.614 350.195 109.614H351.401V111H349.925C349.013 111 348.329 110.79 347.873 110.37C347.417 109.95 347.189 109.26 347.189 108.3V102.486H345.911V101.136H347.189V98.652H348.827V101.136H351.401V102.486H348.827ZM358.282 100.956C359.026 100.956 359.698 101.118 360.298 101.442C360.898 101.754 361.366 102.228 361.702 102.864C362.05 103.5 362.224 104.274 362.224 105.186V111H360.604V105.42C360.604 104.436 360.358 103.686 359.866 103.17C359.374 102.642 358.702 102.378 357.85 102.378C356.986 102.378 356.296 102.648 355.78 103.188C355.276 103.728 355.024 104.514 355.024 105.546V111H353.386V97.68H355.024V102.54C355.348 102.036 355.792 101.646 356.356 101.37C356.932 101.094 357.574 100.956 358.282 100.956ZM373.9 105.69C373.9 106.002 373.882 106.332 373.846 106.68H365.962C366.022 107.652 366.352 108.414 366.952 108.966C367.564 109.506 368.302 109.776 369.166 109.776C369.874 109.776 370.462 109.614 370.93 109.29C371.41 108.954 371.746 108.51 371.938 107.958H373.702C373.438 108.906 372.91 109.68 372.118 110.28C371.326 110.868 370.342 111.162 369.166 111.162C368.23 111.162 367.39 110.952 366.646 110.532C365.914 110.112 365.338 109.518 364.918 108.75C364.498 107.97 364.288 107.07 364.288 106.05C364.288 105.03 364.492 104.136 364.9 103.368C365.308 102.6 365.878 102.012 366.61 101.604C367.354 101.184 368.206 100.974 369.166 100.974C370.102 100.974 370.93 101.178 371.65 101.586C372.37 101.994 372.922 102.558 373.306 103.278C373.702 103.986 373.9 104.79 373.9 105.69ZM372.208 105.348C372.208 104.724 372.07 104.19 371.794 103.746C371.518 103.29 371.14 102.948 370.66 102.72C370.192 102.48 369.67 102.36 369.094 102.36C368.266 102.36 367.558 102.624 366.97 103.152C366.394 103.68 366.064 104.412 365.98 105.348H372.208ZM394.001 101.136L390.923 111H389.231L386.855 103.17L384.479 111H382.787L379.691 101.136H381.365L383.633 109.416L386.081 101.136H387.755L390.149 109.434L392.381 101.136H394.001ZM404.626 105.69C404.626 106.002 404.608 106.332 404.572 106.68H396.688C396.748 107.652 397.078 108.414 397.678 108.966C398.29 109.506 399.028 109.776 399.892 109.776C400.6 109.776 401.188 109.614 401.656 109.29C402.136 108.954 402.472 108.51 402.664 107.958H404.428C404.164 108.906 403.636 109.68 402.844 110.28C402.052 110.868 401.068 111.162 399.892 111.162C398.956 111.162 398.116 110.952 397.372 110.532C396.64 110.112 396.064 109.518 395.644 108.75C395.224 107.97 395.014 107.07 395.014 106.05C395.014 105.03 395.218 104.136 395.626 103.368C396.034 102.6 396.604 102.012 397.336 101.604C398.08 101.184 398.932 100.974 399.892 100.974C400.828 100.974 401.656 101.178 402.376 101.586C403.096 101.994 403.648 102.558 404.032 103.278C404.428 103.986 404.626 104.79 404.626 105.69ZM402.934 105.348C402.934 104.724 402.796 104.19 402.52 103.746C402.244 103.29 401.866 102.948 401.386 102.72C400.918 102.48 400.396 102.36 399.82 102.36C398.992 102.36 398.284 102.624 397.696 103.152C397.12 103.68 396.79 104.412 396.706 105.348H402.934ZM406.176 106.032C406.176 105.024 406.38 104.142 406.788 103.386C407.196 102.618 407.754 102.024 408.462 101.604C409.182 101.184 409.98 100.974 410.856 100.974C411.72 100.974 412.47 101.16 413.106 101.532C413.742 101.904 414.216 102.372 414.528 102.936V101.136H416.184V111H414.528V109.164C414.204 109.74 413.718 110.22 413.07 110.604C412.434 110.976 411.69 111.162 410.838 111.162C409.962 111.162 409.17 110.946 408.462 110.514C407.754 110.082 407.196 109.476 406.788 108.696C406.38 107.916 406.176 107.028 406.176 106.032ZM414.528 106.05C414.528 105.306 414.378 104.658 414.078 104.106C413.778 103.554 413.37 103.134 412.854 102.846C412.35 102.546 411.792 102.396 411.18 102.396C410.568 102.396 410.01 102.54 409.506 102.828C409.002 103.116 408.6 103.536 408.3 104.088C408 104.64 407.85 105.288 407.85 106.032C407.85 106.788 408 107.448 408.3 108.012C408.6 108.564 409.002 108.99 409.506 109.29C410.01 109.578 410.568 109.722 411.18 109.722C411.792 109.722 412.35 109.578 412.854 109.29C413.37 108.99 413.778 108.564 414.078 108.012C414.378 107.448 414.528 106.794 414.528 106.05ZM420.95 102.486V108.3C420.95 108.78 421.052 109.122 421.256 109.326C421.46 109.518 421.814 109.614 422.318 109.614H423.524V111H422.048C421.136 111 420.452 110.79 419.996 110.37C419.54 109.95 419.312 109.26 419.312 108.3V102.486H418.034V101.136H419.312V98.652H420.95V101.136H423.524V102.486H420.95ZM430.405 100.956C431.149 100.956 431.821 101.118 432.421 101.442C433.021 101.754 433.489 102.228 433.825 102.864C434.173 103.5 434.347 104.274 434.347 105.186V111H432.727V105.42C432.727 104.436 432.481 103.686 431.989 103.17C431.497 102.642 430.825 102.378 429.973 102.378C429.109 102.378 428.419 102.648 427.903 103.188C427.399 103.728 427.147 104.514 427.147 105.546V111H425.509V97.68H427.147V102.54C427.471 102.036 427.915 101.646 428.479 101.37C429.055 101.094 429.697 100.956 430.405 100.956ZM446.023 105.69C446.023 106.002 446.005 106.332 445.969 106.68H438.085C438.145 107.652 438.475 108.414 439.075 108.966C439.687 109.506 440.425 109.776 441.289 109.776C441.997 109.776 442.585 109.614 443.053 109.29C443.533 108.954 443.869 108.51 444.061 107.958H445.825C445.561 108.906 445.033 109.68 444.241 110.28C443.449 110.868 442.465 111.162 441.289 111.162C440.353 111.162 439.513 110.952 438.769 110.532C438.037 110.112 437.461 109.518 437.041 108.75C436.621 107.97 436.411 107.07 436.411 106.05C436.411 105.03 436.615 104.136 437.023 103.368C437.431 102.6 438.001 102.012 438.733 101.604C439.477 101.184 440.329 100.974 441.289 100.974C442.225 100.974 443.053 101.178 443.773 101.586C444.493 101.994 445.045 102.558 445.429 103.278C445.825 103.986 446.023 104.79 446.023 105.69ZM444.331 105.348C444.331 104.724 444.193 104.19 443.917 103.746C443.641 103.29 443.263 102.948 442.783 102.72C442.315 102.48 441.793 102.36 441.217 102.36C440.389 102.36 439.681 102.624 439.093 103.152C438.517 103.68 438.187 104.412 438.103 105.348H444.331ZM449.823 102.738C450.111 102.174 450.519 101.736 451.047 101.424C451.587 101.112 452.241 100.956 453.009 100.956V102.648H452.577C450.741 102.648 449.823 103.644 449.823 105.636V111H448.185V101.136H449.823V102.738Z" fill="#FFF9C2"/>
<path d="M170.378 72.3752C171.437 65.8459 167.002 59.6948 160.472 58.6363C153.943 57.5779 147.792 62.0129 146.734 68.5422C145.675 75.0716 150.11 81.2227 156.64 82.2811C163.169 83.3396 169.32 78.9046 170.378 72.3752Z" fill="#FFE07D"/>
<path d="M158.567 58.4817C158.002 58.4817 157.448 58.5236 156.904 58.5992C162.732 59.4091 167.219 64.4091 167.219 70.4598C167.219 76.5105 162.732 81.5105 156.904 82.3204C157.447 82.3959 158.002 82.4379 158.567 82.4379C165.182 82.4379 170.545 77.0752 170.545 70.4598C170.545 63.8444 165.182 58.4817 158.567 58.4817Z" fill="#FFD064"/>
<path d="M158.564 54.775C157.965 54.775 157.479 54.2894 157.479 53.6904V44.1081C157.479 43.5091 157.965 43.0236 158.564 43.0236C159.163 43.0236 159.648 43.5092 159.648 44.1081V53.6906C159.648 54.2894 159.163 54.775 158.564 54.775Z" fill="#FFE07D"/>
<path d="M184.916 71.5444H175.333C174.734 71.5444 174.248 71.0588 174.248 70.4598C174.248 69.8608 174.734 69.3753 175.333 69.3753H184.916C185.515 69.3753 186 69.8609 186 70.4598C186 71.0588 185.515 71.5444 184.916 71.5444V71.5444Z" fill="#FFE07D"/>
<path d="M141.794 71.5444H132.212C131.613 71.5444 131.127 71.0588 131.127 70.4598C131.127 69.8608 131.613 69.3753 132.212 69.3753H141.794C142.393 69.3753 142.879 69.8609 142.879 70.4598C142.879 71.0588 142.393 71.5444 141.794 71.5444V71.5444Z" fill="#FFE07D"/>
<path d="M170.421 59.6867C170.144 59.6867 169.866 59.5808 169.654 59.3691C169.231 58.9456 169.231 58.2588 169.654 57.8353L176.43 51.0595C176.854 50.6361 177.54 50.6361 177.964 51.0595C178.388 51.483 178.388 52.1698 177.964 52.5933L171.188 59.3691C170.977 59.5807 170.699 59.6867 170.421 59.6867V59.6867Z" fill="#FFE07D"/>
<path d="M177.197 90.1779C176.92 90.1779 176.642 90.072 176.43 89.8603L169.655 83.0843C169.231 82.6609 169.231 81.9741 169.655 81.5506C170.078 81.127 170.765 81.127 171.188 81.5506L177.964 88.3266C178.388 88.75 178.388 89.4368 177.964 89.8603C177.752 90.0719 177.475 90.1779 177.197 90.1779Z" fill="#FFE07D"/>
<path d="M146.706 59.6867C146.429 59.6867 146.151 59.5808 145.939 59.3691L139.163 52.5933C138.74 52.1698 138.74 51.483 139.163 51.0595C139.587 50.6361 140.273 50.6361 140.697 51.0595L147.473 57.8353C147.896 58.2588 147.896 58.9456 147.473 59.3691C147.261 59.5807 146.984 59.6867 146.706 59.6867Z" fill="#FFE07D"/>
<path d="M152.147 56.0519C151.721 56.0519 151.317 55.7997 151.144 55.382L149.311 50.9556C149.081 50.4021 149.344 49.7678 149.898 49.5385C150.451 49.3091 151.085 49.5722 151.315 50.1254L153.148 54.5519C153.377 55.1053 153.115 55.7397 152.561 55.9689C152.426 56.0252 152.285 56.0519 152.147 56.0519V56.0519Z" fill="#FFF0AF"/>
<path d="M143.07 65.1272C142.932 65.1272 142.792 65.1006 142.656 65.0445L138.229 63.2109C137.676 62.9817 137.413 62.3473 137.642 61.7939C137.872 61.2405 138.506 60.9778 139.059 61.207L143.486 63.0405C144.039 63.2698 144.302 63.9041 144.073 64.4576C143.9 64.8752 143.496 65.1272 143.07 65.1272Z" fill="#FFF0AF"/>
<path d="M178.483 79.7955C178.344 79.7955 178.204 79.7689 178.068 79.7127L173.641 77.8792C173.088 77.65 172.825 77.0156 173.055 76.4622C173.284 75.9088 173.918 75.6463 174.471 75.8753L178.898 77.7088C179.451 77.9381 179.714 78.5726 179.485 79.1258C179.312 79.5433 178.908 79.7955 178.483 79.7955Z" fill="#FFF0AF"/>
<path d="M174.057 65.1272C173.631 65.1272 173.227 64.875 173.054 64.4574C172.825 63.9041 173.088 63.2696 173.641 63.0404L178.068 61.2069C178.621 60.9775 179.256 61.2405 179.485 61.7938C179.714 62.347 179.451 62.9815 178.898 63.2108L174.471 65.0443C174.336 65.1007 174.195 65.1272 174.057 65.1272V65.1272Z" fill="#FFF0AF"/>
<path d="M164.981 56.0519C164.842 56.0519 164.702 56.0252 164.566 55.9691C164.012 55.7398 163.75 55.1055 163.979 54.5521L165.813 50.1256C166.042 49.5722 166.677 49.3096 167.23 49.5387C167.783 49.7679 168.046 50.4023 167.816 50.9557L165.983 55.382C165.81 55.7997 165.406 56.0519 164.981 56.0519V56.0519Z" fill="#FFF0AF"/>
<path d="M175.286 96.8115H175.283C175.106 96.8115 174.954 96.6928 174.905 96.5233C173.744 92.5373 170.064 89.6246 165.704 89.6246C164.073 89.6246 162.539 90.033 161.195 90.7518C160.668 91.0335 160.015 90.8863 159.68 90.3918C158.388 88.4835 156.204 87.229 153.726 87.229C153.146 87.229 152.583 87.298 152.043 87.4278C151.458 87.5684 150.855 87.2542 150.666 86.6833C148.93 81.4344 143.985 77.6467 138.154 77.6467C130.877 77.6467 124.978 83.5457 124.978 90.8225C124.978 90.9878 124.983 91.1519 124.989 91.3154C124.996 91.4772 124.943 91.636 124.843 91.7636L124.833 91.7769C124.708 91.9368 124.519 92.0312 124.317 92.0422C117.941 92.3896 112.892 97.7191 113.002 104.207C113.113 110.765 118.569 115.976 125.129 115.976H175.143C180.41 115.976 184.8 111.787 184.868 106.521C184.937 101.171 180.621 96.8115 175.286 96.8115Z" fill="#ECF4FF"/>
<path d="M175.286 96.8115H175.283C175.106 96.8115 174.954 96.6928 174.905 96.5233C173.744 92.5373 170.064 89.6246 165.704 89.6246C164.073 89.6246 162.539 90.033 161.195 90.7518C160.668 91.0335 160.015 90.8863 159.68 90.3918C158.388 88.4835 156.204 87.229 153.726 87.229C153.146 87.229 152.583 87.298 152.043 87.4278C151.458 87.5684 150.855 87.2542 150.666 86.6833C148.93 81.4344 143.985 77.6467 138.154 77.6467C130.877 77.6467 124.978 83.5457 124.978 90.8225C124.978 90.9878 124.983 91.1519 124.989 91.3154C124.996 91.4772 124.943 91.636 124.843 91.7636L124.833 91.7769C124.708 91.9368 124.519 92.0312 124.317 92.0422C117.941 92.3896 112.892 97.7191 113.002 104.207C113.113 110.765 118.569 115.976 125.129 115.976H175.143C180.41 115.976 184.8 111.787 184.868 106.521C184.937 101.171 180.621 96.8115 175.286 96.8115Z" fill="#ECF4FF"/>
<path d="M175.286 96.8115H175.283C175.106 96.8115 174.954 96.6928 174.905 96.5233C173.744 92.5373 170.064 89.6246 165.704 89.6246C165.137 89.6246 164.582 89.6751 164.042 89.7697C167.653 90.4022 170.569 93.0561 171.579 96.5233C171.628 96.6927 171.78 96.8115 171.957 96.8115H171.96C177.295 96.8115 181.611 101.171 181.542 106.521C181.473 111.787 177.084 115.976 171.817 115.976H175.143C180.41 115.976 184.799 111.787 184.868 106.521C184.937 101.171 180.621 96.8115 175.286 96.8115V96.8115Z" fill="#DAEAFF"/>
<path d="M135.872 103.998C135.872 104.598 136.357 105.083 136.956 105.083C137.555 105.083 138.041 104.598 138.041 103.998C138.041 96.5818 132.287 90.484 125.008 89.934C124.989 90.2278 124.978 90.5239 124.978 90.8225C124.978 90.9878 124.982 91.1519 124.989 91.3154C124.996 91.4772 124.943 91.636 124.843 91.7636L124.833 91.7769C124.708 91.9367 124.519 92.0312 124.317 92.0422C124.22 92.0475 124.126 92.0574 124.03 92.0648C130.568 92.116 135.872 97.4487 135.872 103.998V103.998Z" fill="#DDEAFB"/>
<path d="M151.923 87.4498C151.378 87.5241 150.842 87.2154 150.666 86.6834C150.557 86.3541 150.435 86.0305 150.302 85.7132C146.296 87.1281 143.418 90.9504 143.418 95.4342C143.418 96.0332 143.903 96.5188 144.502 96.5188C145.101 96.5188 145.586 96.0333 145.586 95.4342C145.586 91.5657 148.3 88.2876 151.923 87.4558V87.4498H151.923Z" fill="#DDEAFB"/>
<path d="M166.788 106.936C166.788 106.337 166.303 105.852 165.704 105.852C165.105 105.852 164.619 106.337 164.619 106.936C164.619 110.644 166.429 113.935 169.211 115.976H175.143C175.259 115.976 175.375 115.972 175.49 115.968C170.661 115.789 166.788 111.807 166.788 106.936V106.936Z" fill="#DDEAFB"/>
<path d="M217.072 52.304H222.652L226.216 67.496C226.384 68.168 226.576 69.32 226.792 70.952H226.972C227.188 69.32 227.38 68.168 227.548 67.496L231.184 52.304H237.484L241.084 67.496C241.228 68.12 241.42 69.272 241.66 70.952H241.84C242.032 69.416 242.224 68.264 242.416 67.496L246.088 52.304H250.912L244.36 77H238.708L234.64 61.268C234.424 60.476 234.22 59.312 234.028 57.776H233.884C233.644 59.432 233.44 60.596 233.272 61.268L229.276 77H223.624L217.072 52.304ZM260.731 77.432C257.683 77.432 255.403 76.628 253.891 75.02C252.403 73.412 251.659 70.916 251.659 67.532C251.659 64.148 252.403 61.652 253.891 60.044C255.403 58.436 257.683 57.632 260.731 57.632C263.539 57.632 265.639 58.448 267.031 60.08C268.423 61.688 269.119 64.172 269.119 67.532V68.684H256.663C256.711 70.364 257.047 71.612 257.671 72.428C258.295 73.22 259.339 73.616 260.803 73.616C261.835 73.616 262.663 73.328 263.287 72.752C263.935 72.176 264.259 71.36 264.259 70.304H269.119C269.119 72.68 268.351 74.468 266.815 75.668C265.279 76.844 263.251 77.432 260.731 77.432ZM264.007 65.408C264.007 62.792 262.915 61.484 260.731 61.484C259.483 61.484 258.535 61.808 257.887 62.456C257.263 63.104 256.879 64.088 256.735 65.408H264.007ZM277.279 77.432C275.815 77.432 274.471 77.048 273.247 76.28C272.023 75.512 271.411 74.12 271.411 72.104C271.411 69.68 272.407 67.964 274.399 66.956C276.391 65.924 279.211 65.408 282.859 65.408V64.076C282.859 63.236 282.667 62.588 282.283 62.132C281.923 61.676 281.227 61.448 280.195 61.448C279.091 61.448 278.299 61.616 277.819 61.952C277.363 62.288 277.135 62.684 277.135 63.14V63.68H272.383C272.359 63.536 272.347 63.272 272.347 62.888C272.347 61.304 273.043 60.032 274.435 59.072C275.851 58.112 277.723 57.632 280.051 57.632C282.643 57.632 284.575 58.16 285.847 59.216C287.143 60.272 287.791 61.796 287.791 63.788V72.14C287.791 72.572 287.911 72.896 288.151 73.112C288.391 73.304 288.691 73.4 289.051 73.4H290.059V76.856C289.291 77.24 288.343 77.432 287.215 77.432C286.231 77.432 285.403 77.216 284.731 76.784C284.083 76.352 283.639 75.74 283.399 74.948H283.183C282.487 75.764 281.683 76.388 280.771 76.82C279.883 77.228 278.719 77.432 277.279 77.432ZM278.827 73.544C280.219 73.544 281.239 73.16 281.887 72.392C282.535 71.6 282.859 70.556 282.859 69.26V68.684C278.563 68.684 276.415 69.644 276.415 71.564C276.415 72.164 276.607 72.644 276.991 73.004C277.399 73.364 278.011 73.544 278.827 73.544ZM298.003 77.432C296.227 77.432 294.955 76.952 294.187 75.992C293.419 75.032 293.035 73.82 293.035 72.356V62.096H290.767V58.064H293.143L293.971 52.736H297.967V58.064H301.243V62.096H297.967V71.852C297.967 72.884 298.483 73.4 299.515 73.4H301.243V76.856C300.835 77 300.319 77.132 299.695 77.252C299.095 77.372 298.531 77.432 298.003 77.432ZM304.915 50.972H309.847V60.26H310.099C311.539 58.508 313.387 57.632 315.643 57.632C317.587 57.632 319.111 58.16 320.215 59.216C321.343 60.272 321.907 61.964 321.907 64.292V77H316.975V65.336C316.975 64.16 316.699 63.308 316.147 62.78C315.595 62.252 314.779 61.988 313.699 61.988C312.595 61.988 311.671 62.384 310.927 63.176C310.207 63.944 309.847 64.904 309.847 66.056V77H304.915V50.972ZM334.735 77.432C331.687 77.432 329.407 76.628 327.895 75.02C326.407 73.412 325.663 70.916 325.663 67.532C325.663 64.148 326.407 61.652 327.895 60.044C329.407 58.436 331.687 57.632 334.735 57.632C337.543 57.632 339.643 58.448 341.035 60.08C342.427 61.688 343.123 64.172 343.123 67.532V68.684H330.667C330.715 70.364 331.051 71.612 331.675 72.428C332.299 73.22 333.343 73.616 334.807 73.616C335.839 73.616 336.667 73.328 337.291 72.752C337.939 72.176 338.263 71.36 338.263 70.304H343.123C343.123 72.68 342.355 74.468 340.819 75.668C339.283 76.844 337.255 77.432 334.735 77.432ZM338.011 65.408C338.011 62.792 336.919 61.484 334.735 61.484C333.487 61.484 332.539 61.808 331.891 62.456C331.267 63.104 330.883 64.088 330.739 65.408H338.011ZM346.927 58.064H351.139L351.535 61.124H351.787C352.195 60.044 352.723 59.192 353.371 58.568C354.019 57.944 354.871 57.632 355.927 57.632C356.623 57.632 357.247 57.74 357.799 57.956V62.564H356.431C354.823 62.564 353.659 63.008 352.939 63.896C352.219 64.76 351.859 66.08 351.859 67.856V77H346.927V58.064ZM371.827 77.432C363.859 77.432 359.875 73.172 359.875 64.652C359.875 60.38 360.919 57.188 363.007 55.076C365.095 52.94 368.035 51.872 371.827 51.872C373.915 51.872 375.787 52.232 377.443 52.952C379.123 53.648 380.443 54.728 381.403 56.192C382.387 57.632 382.879 59.396 382.879 61.484H377.515C377.515 59.876 376.999 58.616 375.967 57.704C374.935 56.768 373.591 56.3 371.935 56.3C369.679 56.3 367.999 56.972 366.895 58.316C365.791 59.66 365.239 61.592 365.239 64.112V65.192C365.239 70.4 367.471 73.004 371.935 73.004C373.687 73.004 375.079 72.548 376.111 71.636C377.167 70.724 377.695 69.464 377.695 67.856H382.879C382.879 69.968 382.399 71.744 381.439 73.184C380.479 74.6 379.171 75.668 377.515 76.388C375.859 77.084 373.963 77.432 371.827 77.432ZM386.9 50.972H391.832V60.26H392.084C393.524 58.508 395.372 57.632 397.628 57.632C399.572 57.632 401.096 58.16 402.2 59.216C403.328 60.272 403.892 61.964 403.892 64.292V77H398.96V65.336C398.96 64.16 398.684 63.308 398.132 62.78C397.58 62.252 396.764 61.988 395.684 61.988C394.58 61.988 393.656 62.384 392.912 63.176C392.192 63.944 391.832 64.904 391.832 66.056V77H386.9V50.972ZM416.72 77.432C413.672 77.432 411.392 76.628 409.88 75.02C408.392 73.412 407.648 70.916 407.648 67.532C407.648 64.148 408.392 61.652 409.88 60.044C411.392 58.436 413.672 57.632 416.72 57.632C419.528 57.632 421.628 58.448 423.02 60.08C424.412 61.688 425.108 64.172 425.108 67.532V68.684H412.652C412.7 70.364 413.036 71.612 413.66 72.428C414.284 73.22 415.328 73.616 416.792 73.616C417.824 73.616 418.652 73.328 419.276 72.752C419.924 72.176 420.248 71.36 420.248 70.304H425.108C425.108 72.68 424.34 74.468 422.804 75.668C421.268 76.844 419.24 77.432 416.72 77.432ZM419.996 65.408C419.996 62.792 418.904 61.484 416.72 61.484C415.472 61.484 414.524 61.808 413.876 62.456C413.252 63.104 412.868 64.088 412.724 65.408H419.996ZM436.759 77.432C433.735 77.432 431.467 76.628 429.955 75.02C428.467 73.412 427.723 70.916 427.723 67.532C427.723 64.172 428.467 61.688 429.955 60.08C431.467 58.448 433.735 57.632 436.759 57.632C439.279 57.632 441.283 58.28 442.771 59.576C444.283 60.848 445.039 62.72 445.039 65.192H440.071C440.071 64.04 439.771 63.152 439.171 62.528C438.571 61.904 437.731 61.592 436.651 61.592C435.307 61.592 434.311 62.072 433.663 63.032C433.039 63.968 432.727 65.372 432.727 67.244V67.82C432.727 69.692 433.051 71.108 433.699 72.068C434.371 73.004 435.439 73.472 436.903 73.472C437.935 73.472 438.751 73.16 439.351 72.536C439.975 71.888 440.287 71 440.287 69.872H445.039C445.039 72.344 444.295 74.228 442.807 75.524C441.319 76.796 439.303 77.432 436.759 77.432ZM448.915 50.972H453.847V65.588L460.111 58.064H465.799L459.535 65.336L466.159 77H460.507L456.367 68.972L453.847 71.42V77H448.915V50.972Z" fill="white"/>
<path d="M762 81.0746C761.438 81.0746 760.882 81.1852 760.363 81.4002C759.844 81.6152 759.372 81.9303 758.975 82.3276C758.578 82.7248 758.263 83.1964 758.048 83.7155C757.833 84.2345 757.722 84.7908 757.722 85.3526C757.722 85.9144 757.833 86.4707 758.048 86.9897C758.263 87.5087 758.578 87.9803 758.975 88.3776C759.372 88.7748 759.844 89.0899 760.363 89.3049C760.882 89.5199 761.438 89.6306 762 89.6306C762.562 89.6306 763.118 89.5199 763.637 89.3049C764.156 89.0899 764.628 88.7748 765.025 88.3776C765.422 87.9803 765.737 87.5087 765.952 86.9897C766.167 86.4707 766.278 85.9144 766.278 85.3526C766.278 84.7908 766.167 84.2345 765.952 83.7155C765.737 83.1964 765.422 82.7248 765.025 82.3276C764.628 81.9303 764.156 81.6152 763.637 81.4002C763.118 81.1852 762.562 81.0746 762 81.0746ZM750.016 93.8626L749.072 93.6226C742.036 91.8446 738 88.8266 738 85.3446C738 81.8626 742.036 78.8446 749.072 77.0666L750.016 76.8286L750.282 77.7646C750.995 80.22 751.906 82.6133 753.008 84.9206L753.21 85.3466L753.008 85.7726C751.905 88.0791 750.993 90.4725 750.282 92.9286L750.016 93.8626ZM748.634 79.2526C743.286 80.7546 740.004 83.0526 740.004 85.3446C740.004 87.6346 743.286 89.9326 748.634 91.4366C749.288 89.3564 750.078 87.3214 750.998 85.3446C750.077 83.3682 749.287 81.3331 748.634 79.2526V79.2526ZM773.984 93.8626L773.718 92.9246C773.006 90.4693 772.094 88.0766 770.99 85.7706L770.788 85.3446L770.99 84.9186C772.093 82.6117 773.006 80.2184 773.718 77.7626L773.984 76.8266L774.93 77.0646C781.964 78.8426 786 81.8606 786 85.3446C786 88.8286 781.964 91.8446 774.93 93.6226L773.984 93.8626V93.8626ZM773.002 85.3446C773.962 87.4226 774.756 89.4646 775.366 91.4366C780.716 89.9326 783.996 87.6346 783.996 85.3446C783.996 83.0526 780.714 80.7566 775.366 79.2526C774.713 81.333 773.923 83.3681 773.002 85.3446V85.3446ZM748.62 79.2426L748.354 78.3086C746.376 71.3366 746.976 66.3406 750 64.5966C752.966 62.8846 757.728 64.9066 762.718 70.0286L763.398 70.7266L762.718 71.4246C760.945 73.2678 759.325 75.2523 757.874 77.3586L757.604 77.7446L757.134 77.7846C754.582 77.9858 752.05 78.3938 749.564 79.0046L748.62 79.2426V79.2426ZM752.412 65.9826C751.876 65.9826 751.402 66.0986 751.002 66.3286C749.014 67.4746 748.662 71.4586 750.032 76.8346C752.163 76.3604 754.323 76.0257 756.498 75.8326C757.753 74.0483 759.124 72.3487 760.602 70.7446C757.482 67.7066 754.528 65.9826 752.412 65.9826V65.9826ZM771.59 106.707C771.588 106.707 771.588 106.707 771.59 106.707C768.74 106.707 765.08 104.561 761.282 100.661L760.602 99.9626L761.282 99.2646C763.055 97.4208 764.674 95.4355 766.124 93.3286L766.394 92.9426L766.862 92.9026C769.416 92.7025 771.949 92.2951 774.436 91.6846L775.38 91.4466L775.648 92.3826C777.622 99.3506 777.024 104.349 774 106.091C773.265 106.506 772.434 106.718 771.59 106.707V106.707ZM763.398 99.9446C766.518 102.983 769.472 104.707 771.588 104.707H771.59C772.124 104.707 772.6 104.591 772.998 104.361C774.986 103.215 775.34 99.2286 773.968 93.8526C771.836 94.3274 769.676 94.6621 767.5 94.8546C766.247 96.64 764.876 98.3404 763.398 99.9446V99.9446ZM775.38 79.2426L774.436 79.0046C771.949 78.392 769.416 77.984 766.862 77.7846L766.394 77.7446L766.124 77.3586C764.675 75.2517 763.055 73.267 761.282 71.4246L760.602 70.7266L761.282 70.0286C766.27 64.9086 771.03 62.8866 774 64.5966C777.024 66.3406 777.624 71.3366 775.648 78.3066L775.38 79.2426ZM767.5 75.8326C769.784 76.0406 771.954 76.3786 773.968 76.8346C775.34 71.4586 774.986 67.4746 772.998 66.3286C771.022 65.1866 767.308 66.9366 763.398 70.7446C764.875 72.3487 766.246 74.0484 767.5 75.8326V75.8326ZM752.412 106.707C751.568 106.719 750.735 106.506 750 106.091C746.976 104.349 746.376 99.3526 748.354 92.3826L748.618 91.4466L749.562 91.6846C751.872 92.2666 754.42 92.6766 757.132 92.9026L757.602 92.9426L757.87 93.3286C759.321 95.4353 760.941 97.4205 762.714 99.2646L763.394 99.9626L762.714 100.661C758.918 104.561 755.258 106.707 752.412 106.707V106.707ZM750.032 93.8526C748.66 99.2286 749.014 103.215 751.002 104.361C752.976 105.487 756.688 103.751 760.602 99.9446C759.124 98.3393 757.753 96.639 756.498 94.8546C754.323 94.6622 752.163 94.3275 750.032 93.8526V93.8526ZM762 95.1086C760.354 95.1086 758.662 95.0366 756.968 94.8966L756.498 94.8566L756.228 94.4706C755.27 93.0938 754.369 91.6779 753.528 90.2266C752.689 88.7741 751.911 87.2875 751.196 85.7706L750.996 85.3446L751.196 84.9186C751.911 83.4016 752.689 81.915 753.528 80.4626C754.356 79.0306 755.266 77.6026 756.228 76.2186L756.498 75.8326L756.968 75.7926C760.317 75.5086 763.685 75.5086 767.034 75.7926L767.502 75.8326L767.77 76.2186C769.688 78.9727 771.372 81.8829 772.804 84.9186L773.006 85.3446L772.804 85.7706C771.376 88.808 769.692 91.7185 767.77 94.4706L767.502 94.8566L767.034 94.8966C765.34 95.0366 763.646 95.1086 762 95.1086V95.1086ZM757.606 92.9406C760.566 93.1626 763.434 93.1626 766.396 92.9406C768.05 90.5231 769.518 87.9838 770.788 85.3446C769.52 82.7037 768.051 80.1643 766.394 77.7486C763.469 77.5266 760.531 77.5266 757.606 77.7486C755.948 80.1638 754.479 82.7033 753.212 85.3446C754.484 87.9835 755.952 90.5227 757.606 92.9406V92.9406Z" fill="#FFE07D"/>
</g>
<defs>
<clipPath id="clip0">
<rect width="900" height="160" rx="4" fill="white"/>
</clipPath>
</defs>
</svg>
